<svg width="249" height="41" viewBox="0 0 249 41" fill="none" xmlns="http://www.w3.org/2000/svg">
<g clip-path="url(#clip0_1154_5905)">
<path d="M18.4547 25.8671H8.4441L6.83929 30.6049H0L9.70507 3.7832H17.2704L26.975 30.6049H20.0595L18.4547 25.8671ZM13.4497 11.0042L10.1634 20.8237H16.7733L13.4497 11.0042Z" fill="white"/>
<path d="M39.9236 3.7832C46.4951 3.7832 49.7809 7.56562 49.7809 12.2268C49.7809 15.5892 47.9472 18.7606 43.8204 19.9832L50.0103 30.6049H42.6361L37.0578 20.4799H35.4913V30.6049H28.9575V3.7832H39.9236ZM39.5414 9.20826H35.4913V15.8565H39.5414C41.9867 15.8565 43.1327 14.596 43.1327 12.4945C43.1327 10.5075 41.9867 9.20826 39.5414 9.20826Z" fill="white"/>
<path d="M51.4585 3.7832H72.2053V9.01767H65.0987V30.6049H58.565V9.01767H51.4585V3.7832Z" fill="white"/>
<path d="M74.5322 2.32812H81.066V12.1477C82.3653 10.3134 84.6956 9.05247 87.6375 9.05247C92.4903 9.05247 95.7378 12.4149 95.7378 18.146V30.6019H89.2424V19.0248C89.2424 16.1211 87.6375 14.5163 85.1544 14.5163C82.6708 14.5163 81.066 16.1211 81.066 19.0248V30.6019H74.5322V2.32812Z" fill="white"/>
<path d="M108.801 30.9096C102.535 30.9096 98.0269 26.7067 98.0269 19.9441C98.0269 13.1814 102.459 8.97852 108.801 8.97852C115.03 8.97852 119.423 13.1048 119.423 19.6002C119.423 20.2118 119.385 20.8612 119.309 21.5106H104.522C104.751 24.2997 106.471 25.599 108.572 25.599C110.406 25.599 111.438 24.6819 111.973 23.5354H118.926C117.895 27.7005 114.112 30.9096 108.801 30.9096ZM104.56 17.8809H112.737C112.737 15.5501 110.903 14.213 108.725 14.213C106.585 14.213 104.942 15.5118 104.56 17.8809Z" fill="white"/>
<path d="M136.613 19.027C136.613 16.1234 135.008 14.5185 132.525 14.5185C130.042 14.5185 128.437 16.1234 128.437 19.027V30.6041H121.903V9.28408H128.437V12.1116C129.736 10.3157 132.028 9.05469 134.894 9.05469C139.823 9.05469 143.109 12.4171 143.109 18.1482V30.6041H136.613V19.027Z" fill="white"/>
<path d="M147.728 14.7096H145.13V9.28403H147.728V4.08789H154.262V9.28404H158.541V14.7096H154.262V23.2682C154.262 24.5291 154.797 25.0641 156.249 25.0641H158.579V30.6041H155.255C150.823 30.6041 147.728 28.732 147.728 23.1915V14.7096Z" fill="white"/>
<path d="M160.64 3.5535C160.64 1.56651 162.206 0 164.537 0C166.83 0 168.396 1.56651 168.396 3.5535C168.396 5.50218 166.83 7.06869 164.537 7.06869C162.206 7.06869 160.64 5.50218 160.64 3.5535ZM161.251 9.28459H167.784V30.6046H161.251V9.28459Z" fill="white"/>
<path d="M180.965 8.97852C186.314 8.97852 190.096 11.9204 191.204 17.0021H184.251C183.716 15.5118 182.646 14.5568 180.85 14.5568C178.52 14.5568 176.915 16.3906 176.915 19.9441C176.915 23.4976 178.52 25.3313 180.85 25.3313C182.646 25.3313 183.677 24.4525 184.251 22.886H191.204C190.096 27.8149 186.314 30.9096 180.965 30.9096C174.699 30.9096 170.267 26.7067 170.267 19.9441C170.267 13.2197 174.699 8.97852 180.965 8.97852Z" fill="white"/>
<path d="M193.111 3.5535C193.111 1.56651 194.678 0 197.009 0C199.301 0 200.868 1.56651 200.868 3.5535C200.868 5.50218 199.301 7.06869 197.009 7.06869C194.678 7.06869 193.111 5.50218 193.111 3.5535ZM193.722 9.28459H200.256V30.6046H193.722V9.28459Z" fill="white"/>
<path d="M205.069 14.7096H202.471V9.28403H205.069V4.08789H211.603V9.28404H215.882V14.7096H211.603V23.2682C211.603 24.5291 212.137 25.0641 213.59 25.0641H215.92V30.6041H212.596C208.164 30.6041 205.069 28.732 205.069 23.1915V14.7096Z" fill="white"/>
<path d="M233.302 9.2832H240.371L226.998 40.7283H219.968L224.859 29.8772L216.185 9.2832H223.483L228.412 22.6179L233.302 9.2832Z" fill="white"/>
<path d="M244.837 30.9112C242.506 30.9112 240.94 29.3447 240.94 27.396C240.94 25.3712 242.506 23.8047 244.837 23.8047C247.13 23.8047 248.696 25.3712 248.696 27.396C248.696 29.3447 247.13 30.9112 244.837 30.9112Z" fill="white"/>
</g>
<defs>
<clipPath id="clip0_1154_5905">
<rect width="248.696" height="40.7297" fill="white"/>
</clipPath>
</defs>
</svg>
